<?xml version="1.0" encoding="UTF-8"?>
<svg version="1.1" viewBox="0 0 1344 1600" width="1280" height="1280" xmlns="http://www.w3.org/2000/svg">
<path transform="translate(0)" d="m0 0h1344v1600h-1344v-1600z" fill="#FBFDFD"/>
<path transform="translate(0)" d="m0 0h1344v668l-4-2v-2h-2c-1.71-1.62-3.37-3.3-5-5l-5.16-5.13c-4.94-4.9-9.87-9.82-14.8-14.7-2.98-2.97-5.96-5.94-8.94-8.9-2.9-2.88-5.79-5.75-8.68-8.64-1.1-1.09-2.2-2.19-3.3-3.28-1.54-1.52-3.07-3.05-4.6-4.58-0.87-0.87-1.75-1.74-2.65-2.63-1.86-2.11-1.86-2.11-1.86-4.11-0.54-0.21-1.07-0.41-1.62-0.62-3.3-1.91-5.97-4.43-8.38-7.38v-2c-0.53-0.21-1.07-0.42-1.62-0.64-3.3-1.89-5.8-4.49-8.46-7.17l-1.73-1.73c-1.2-1.2-2.4-2.4-3.6-3.61-1.84-1.85-3.69-3.69-5.54-5.53-1.17-1.17-2.34-2.34-3.5-3.51-0.56-0.55-1.12-1.1-1.69-1.67-3.86-3.91-3.86-3.91-3.86-6.14-0.53-0.21-1.06-0.41-1.61-0.62-3.4-1.96-5.9-4.6-8.64-7.38-0.55-0.55-1.11-1.09-1.68-1.66-4.07-4.09-4.07-4.09-4.07-6.34-0.55-0.23-1.1-0.45-1.67-0.69-3.02-1.7-5.14-3.86-7.58-6.31-0.89-0.89-1.78-1.77-2.7-2.69-2.05-2.31-2.05-2.31-2.05-4.31-0.58-0.26-1.16-0.51-1.76-0.77-2.47-1.36-4.14-2.87-6.13-4.85l-2.15-2.15c-0.73-0.73-1.46-1.47-2.21-2.23-0.75-0.74-1.49-1.47-2.26-2.23-1.05-1.06-1.05-1.06-2.13-2.15-0.65-0.64-1.29-1.29-1.95-1.96-1.41-1.66-1.41-1.66-1.41-3.66-0.62-0.25-1.24-0.5-1.88-0.75-2.52-1.49-2.84-2.69-4.12-5.25-2.03-1.27-2.03-1.27-4-2v-2c-0.54-0.21-1.07-0.41-1.62-0.62-3.3-1.91-5.97-4.43-8.38-7.38v-2c-0.54-0.21-1.07-0.41-1.62-0.62-3.3-1.91-5.97-4.43-8.38-7.38v-2c-0.53-0.21-1.06-0.41-1.61-0.62-3.4-1.96-5.9-4.6-8.64-7.38-0.55-0.55-1.11-1.09-1.68-1.66-4.07-4.09-4.07-4.09-4.07-6.34l-4-2v-2c-0.83-0.34-0.83-0.34-1.67-0.69-3-1.69-5.1-3.82-7.53-6.25-0.49-0.48-0.97-0.96-1.47-1.45-1.01-1.02-2.02-2.03-3.03-3.05-1.55-1.56-3.11-3.11-4.68-4.66-0.98-0.99-1.96-1.97-2.95-2.96-0.89-0.9-1.79-1.8-2.71-2.73-1.96-2.21-1.96-2.21-1.96-4.21l-4-2v-2c-0.54-0.21-1.07-0.41-1.62-0.62-3.3-1.91-5.97-4.43-8.38-7.38v-2c-0.55-0.22-1.09-0.44-1.65-0.67-3.1-1.75-5.4-4.12-7.88-6.62-0.55-0.55-1.1-1.09-1.66-1.66-1.83-1.83-3.66-3.66-5.49-5.5-1.31-1.31-2.62-2.62-3.93-3.94-3.57-3.56-7.13-7.13-10.7-10.7-3.73-3.73-7.46-7.47-11.2-11.2-7.07-7.08-14.1-14.2-21.2-21.2-8.02-8.05-16-16.1-24.1-24.1-13.7-13.7-27.4-27.5-41.2-41.2l-1.76-1.76c-1.06-1.06-2.12-2.13-3.19-3.2-3.04-3.05-6.08-6.09-9.13-9.14l-94.6-94.6c-2.97-2.97-5.93-5.94-8.88-8.91-1.55-1.56-3.1-3.11-4.64-4.67-1.07-1.07-2.14-2.15-3.21-3.22-1.55-1.56-3.1-3.12-4.65-4.68-0.92-0.92-1.84-1.85-2.79-2.8-2.07-2.17-2.07-2.17-4.26-3.15v-2c-0.84-0.34-0.84-0.34-1.69-0.69-3.99-2.27-6.85-4.93-8.31-9.31-0.9-0.43-0.9-0.43-1.81-0.88-2.88-1.47-4.24-3.58-6.19-6.12l-2-1v-2c-0.84-0.34-0.84-0.34-1.69-0.69-4.76-2.7-8.09-7.19-11.7-11.2-3.12-3.51-6.3-6.6-9.94-9.56-2.59-2.31-4.73-4.96-6.97-7.61-1.62-1.78-3.26-3.27-5.15-4.77-0.84-0.7-1.69-1.4-2.56-2.12v-2c-0.99-0.33-1.98-0.66-3-1-3.19-2.92-5.97-6.11-8.81-9.38-3.77-4.27-7.86-7.94-12.2-11.6-2.5-2.31-2.5-2.31-4-4v-2c-0.9-0.4-0.9-0.4-1.81-0.81-2.19-1.19-3.6-2.29-5.19-4.19v-2c-0.56-0.23-1.11-0.45-1.69-0.69-2.97-1.69-5.03-3.78-7.31-6.31v-2c-0.62-0.25-1.24-0.49-1.88-0.75-2.52-1.49-2.84-2.69-4.12-5.25-0.6-0.29-1.19-0.58-1.81-0.88-2.59-1.32-4.21-2.91-6.25-4.97-0.79-0.79-1.58-1.58-2.39-2.4-0.84-0.85-1.68-1.71-2.55-2.59s-1.75-1.76-2.64-2.66c-2.32-2.33-4.63-4.67-6.94-7-3.26-3.3-6.51-6.58-9.78-9.86-1.73-1.75-3.46-3.5-5.19-5.25-0.79-0.8-1.58-1.59-2.39-2.41-0.69-0.7-1.38-1.4-2.09-2.11-1.94-1.92-1.94-1.92-4.22-3.49-0.58-0.46-1.16-0.91-1.75-1.38v-2c-1.32-0.69-2.66-1.35-4-2-0.78-0.45-1.57-0.91-2.38-1.38-2.78-0.96-2.78-0.96-5.68 1-2.91 2.27-2.91 2.27-5.19 4.63l-1.75 1.75h-2c-0.27 0.64-0.54 1.28-0.81 1.94-1.19 2.06-1.19 2.06-4.19 3.06l-1 3c-1.46 1.44-1.46 1.44-3.37 3-5.53 4.7-10.6 9.84-15.7 15-1.11 1.11-2.22 2.21-3.33 3.32-3.02 3.03-6.04 6.06-9.06 9.09-3.27 3.27-6.53 6.54-9.8 9.81-5.66 5.66-11.3 11.3-17 17-8.18 8.19-16.4 16.4-24.5 24.6-13.3 13.3-26.5 26.6-39.8 39.8-1.19 1.19-1.19 1.19-2.4 2.41-11.3 11.3-22.6 22.6-33.8 33.9-0.8 0.79-1.59 1.59-2.41 2.41l-2.41 2.41c-13.2 13.2-26.4 26.5-39.7 39.7-8.16 8.17-16.3 16.4-24.5 24.5-5.58 5.6-11.2 11.2-16.8 16.8-3.22 3.23-6.45 6.46-9.67 9.69-2.94 2.96-5.89 5.91-8.84 8.86-1.08 1.07-2.15 2.14-3.21 3.22-1.45 1.45-2.9 2.89-4.35 4.34-0.8 0.81-1.61 1.61-2.44 2.45-1.95 1.7-1.95 1.7-3.95 1.7-0.34 0.84-0.34 0.84-0.69 1.69-1.69 2.97-3.78 5.03-6.31 7.31h-2c-0.21 0.53-0.41 1.06-0.62 1.61-1.95 3.39-4.66 5.95-7.41 8.69-0.89 0.89-0.89 0.89-1.79 1.8-1.25 1.25-2.5 2.49-3.76 3.74-1.92 1.91-3.83 3.83-5.74 5.76-1.22 1.21-2.43 2.42-3.65 3.63-0.57 0.58-1.15 1.16-1.74 1.76-4.06 4.01-4.06 4.01-6.29 4.01-0.24 0.56-0.47 1.12-0.72 1.7-1.57 2.82-3.49 4.78-5.78 7.05-0.79 0.8-1.59 1.6-2.41 2.42-2.09 1.83-2.09 1.83-4.09 1.83-0.25 0.57-0.5 1.14-0.75 1.73-1.44 2.62-3.13 4.42-5.25 6.52-0.7 0.71-1.4 1.41-2.12 2.14-1.88 1.61-1.88 1.61-3.88 1.61l-2 4h-2c-0.31 0.8-0.31 0.8-0.62 1.61-1.96 3.4-4.6 5.9-7.38 8.64-0.55 0.55-1.09 1.11-1.66 1.68-4.09 4.07-4.09 4.07-6.34 4.07l-1 3c-2.44 2.69-2.44 2.69-5 5h-2l-1 3c-3.13 3.35-6.51 6.39-9.93 9.44-9.51 8.63-18.5 17.8-27.5 26.9l-8.28 8.28c-5.39 5.38-10.8 10.8-16.2 16.2-4.38 4.38-8.75 8.76-13.1 13.1-0.63 0.62-1.25 1.25-1.9 1.89l-3.81 3.81c-11.9 11.9-23.8 23.8-35.6 35.6l-30.6 30.6c-11.8 11.8-23.7 23.7-35.6 35.5-1.26 1.27-2.52 2.53-3.78 3.79-0.63 0.62-1.25 1.24-1.89 1.88-4.37 4.38-8.75 8.76-13.1 13.1-5.33 5.33-10.7 10.7-16 16-2.72 2.72-5.44 5.44-8.16 8.15-2.94 2.94-5.88 5.89-8.82 8.83l-7.06 7.06c-1.86 1.91-1.86 1.91-3.68 4.81h-2c-0.4 0.96-0.4 0.96-0.81 1.94-1.19 2.06-1.19 2.06-4.19 3.06l-1 3c-3.1 3.35-6.45 6.16-10 9-2.31 2.25-4.57 4.55-6.8 6.88-0.93 0.95-0.93 0.95-1.89 1.93-0.58 0.61-1.16 1.21-1.76 1.83-1.55 1.36-1.55 1.36-3.55 1.36l-1 3h-2l-2 4h-1v-670z" fill="#FBFDFD"/>
<path transform="translate(134,738)" d="m0 0c4.09 1.32 8.17 2.66 12.2 4 1.12 0.36 2.24 0.72 3.39 1.1 7.85 2.58 15.5 5.51 23.2 8.61 6.98 2.82 14 5.52 21 8.17 1.67 0.62 1.67 0.62 3.38 1.26 3.42 1.29 6.85 2.58 10.3 3.86 27 10.1 27 10.1 39.9 15.4 5.33 2.16 10.7 4.18 16.1 6.14 0.89 0.32 1.77 0.65 2.69 0.98 0.69 0.25 1.38 0.5 2.09 0.76 4.63 1.71 9.21 3.53 13.8 5.38 9.35 3.79 18.8 7.41 28.2 11 0.71 0.28 1.42 0.55 2.16 0.83 11.5 4.38 22.9 8.7 34.4 13 9.89 3.7 19.7 7.49 29.6 11.3 16.2 6.3 32.5 12.5 48.8 18.6 21.5 8.07 42.9 16.4 64.2 24.7 6.85 2.66 13.7 5.31 20.6 7.94l4.92 1.89c5.86 2.25 11.7 4.49 17.6 6.73 1.04 0.41 2.09 0.81 3.17 1.22 12.2 4.67 24.4 9.34 36.6 14 30 11.4 60 22.8 89.7 34.8 7.73 3.31 7.73 3.31 16 3.37 1.87-0.85 3.7-1.78 5.52-2.74 5.97-3.06 12-5.54 18.3-7.88 2.28-0.87 4.56-1.73 6.83-2.59 1.2-0.45 2.39-0.9 3.61-1.37 5.93-2.24 11.8-4.54 17.7-6.83 2.01-0.78 4.02-1.55 6.03-2.33 5.37-2.08 10.7-4.16 16.1-6.26 9.26-3.62 18.6-7.13 27.9-10.6 6.32-2.36 12.6-4.8 18.8-7.34 12.3-4.98 24.8-9.49 37.2-14.1 11-4.03 21.8-8.27 32.7-12.5 9.76-3.85 19.5-7.64 29.3-11.4 7.99-3.09 16-6.21 23.9-9.43 6.51-2.63 13.1-5.05 19.7-7.34 6.24-2.17 12.4-4.62 18.5-7.11 6.56-2.65 13.2-5.15 19.8-7.61 7.91-2.93 15.8-6.01 23.6-9.25 6.95-2.88 13.9-5.59 21-8.03 5.4-1.86 10.7-3.85 16.1-5.89 0.9-0.35 1.81-0.7 2.74-1.05 9.72-3.72 19.4-7.49 29.1-11.3 16.2-6.29 32.3-12.5 48.5-18.6 0.75-0.29 1.51-0.57 2.29-0.87 1.49-0.56 2.98-1.12 4.48-1.69 0.71-0.27 1.43-0.54 2.17-0.81 0.7-0.27 1.4-0.53 2.12-0.8 6.47-2.44 12.9-4.91 19.4-7.39 1.51-0.59 1.51-0.59 3.06-1.18 5.15-1.99 10.3-3.99 15.4-6 28.5-11.2 28.5-11.2 41.1-14.7 0.84 2.94 1.13 5.55 1.13 8.6v2.8 3.07 3.27c0.01 3.62 0 7.24 0 10.9v7.78c0.01 6.32 0.01 12.6 0.01 19-0.01 5.14-0.01 10.3-0.01 15.4v2.22c0 1.48 0 2.96 0.01 4.45 0 13.9-0.01 27.8-0.01 41.8-0.01 12 0 23.9 0 35.8 0.01 13.9 0.01 27.7 0 41.6v4.44 2.2c0 5.13 0 10.3 0.01 15.4 0 6.91 0 13.8-0.01 20.7v7.61c0.01 3.46 0 6.92 0 10.4v3.06 2.81 2.42c-0.14 2.51-0.6 4.85-1.13 7.31-0.09 1.44-0.13 2.88-0.13 4.32 0 0.78-0.01 1.57-0.01 2.37 0.01 1.21 0.01 1.21 0.02 2.43-0.01 0.82-0.01 1.63-0.02 2.46 0 0.78 0.01 1.56 0.01 2.37v2.14c0.06 2.13 0.06 2.13 1.13 4.91-0.17 3.27-0.51 6.51-0.84 9.77-0.15 3.01 0.19 5.32 0.84 8.23-0.33 1.67-0.66 3.33-1 5 0.33 1.33 0.66 2.67 1 4 0.09 1.5 0.12 3 0.12 4.51v2.71c0 0.98 0 1.96-0.01 2.96v3.14c0 3.42 0 6.84-0.01 10.3 0 2.37-0.01 4.74-0.01 7.11 0 6.24-0.01 12.5-0.02 18.7-0.01 6.37-0.02 12.7-0.02 19.1-0.01 12.5-0.03 25-0.05 37.5-32.3-11.8-32.3-11.8-47.6-17.7-1.45-0.55-2.89-1.1-4.33-1.65-7.62-2.93-15.2-5.91-22.8-8.97-14.1-5.71-28.4-10.9-43-15.5-3.29-1.2-3.29-1.2-6.84-3.02-4.83-2.44-9.82-4.35-14.9-6.26-0.99-0.38-1.98-0.76-3-1.15-3.15-1.19-6.29-2.39-9.45-3.58l-9.3-3.54c-2.04-0.78-4.08-1.56-6.12-2.33-6.81-2.59-13.6-5.22-20.4-7.88-4.75-1.85-9.52-3.66-14.3-5.44-9.47-3.53-18.9-7.22-28.3-10.9-8.47-3.31-17-6.59-25.5-9.77-8.15-3.04-16.3-6.14-24.4-9.23-2.7-1.03-5.41-2.06-8.11-3.09-9.29-3.54-18.6-7.1-27.8-10.7-4.13-1.61-8.27-3.14-12.5-4.59-6.24-2.2-12.4-4.65-18.5-7.13-10.6-4.27-21.2-8.35-31.9-12.4-0.78-0.3-1.57-0.59-2.38-0.9-3.19-1.2-6.39-2.41-9.59-3.61-8.16-3.08-16.3-6.19-24.5-9.3-0.69-0.27-1.39-0.54-2.11-0.82-13.2-5.07-26.5-10.2-39.7-15.3-4.67-1.82-9.35-3.62-14-5.42-2.72-1.05-5.43-2.1-8.15-3.14-0.65-0.26-1.31-0.51-1.99-0.77-7.37-2.85-14.7-5.74-22-8.8-29.4-12.3-46-10.3-75.2 1.26-2.04 0.8-4.08 1.6-6.13 2.41-4.12 1.62-8.25 3.24-12.4 4.87-7.85 3.09-15.7 6.16-23.6 9.21-2.17 0.85-4.34 1.69-6.51 2.54-7.43 2.89-14.9 5.74-22.3 8.51-4.37 1.63-8.71 3.33-13 5.08-4.93 1.99-9.87 3.91-14.8 5.77-1.41 0.52-2.83 1.05-4.24 1.58-0.72 0.27-1.45 0.54-2.2 0.82-6.7 2.51-13.4 5.05-20.1 7.58-0.79 0.3-1.59 0.6-2.41 0.91-10.5 3.97-20.9 7.95-31.4 12-1.52 0.59-1.52 0.59-3.07 1.18-4.28 1.66-8.56 3.33-12.8 5.05-6.92 2.78-13.9 5.35-20.9 7.95-19.6 7.29-39.1 14.8-58.5 22.5-12.3 4.83-24.6 9.63-37 14.3-6.74 2.51-13.5 5.09-20.2 7.66-0.73 0.27-1.45 0.55-2.2 0.84-11.4 4.36-22.8 8.81-34.2 13.3-7.72 3.05-15.5 6.02-23.2 8.9-18.4 6.81-36.7 13.8-55 20.8-4.66 1.78-9.32 3.57-14 5.35-4.18 1.6-8.35 3.19-12.5 4.79-2.03 0.78-4.06 1.55-6.09 2.33-1.94 0.74-3.88 1.49-5.82 2.23-1.87 0.72-3.75 1.43-5.62 2.15-4.46 1.7-8.9 3.43-13.3 5.23-1.24 0.5-1.24 0.5-2.5 1.01-1.55 0.62-3.09 1.25-4.62 1.9-3.67 1.47-5.86 2.25-9.61 0.96-1.89-1.89-1.13-5.2-1.13-7.71v-2.16c-0.01-2.42-0.01-4.84 0-7.26-0.01-1.74-0.01-3.48-0.01-5.22-0.01-4.8-0.01-9.61-0.01-14.4 0-5.18 0-10.4-0.01-15.5 0-10.2-0.01-20.3-0.01-30.4v-24.7c-0.01-23.3-0.02-46.7-0.02-70v-3.81-3.82c0.01-20.4 0-40.9-0.02-61.3-0.01-21-0.02-41.9-0.02-62.9 0-11.8 0-23.6-0.01-35.4-0.01-10-0.01-20.1-0.01-30.1 0.01-5.12 0.01-10.2 0-15.4-0.01-4.68-0.01-9.37 0-14 0-1.7 0-3.4-0.01-5.1 0-2.3 0-4.6 0.01-6.9v-3.88c0.25-2.95 0.25-2.95 2.25-4.95z" fill="#FD0803"/>
<path transform="translate(674 2.62)" d="m0 0c2.58 1.32 4.2 2.71 6.16 4.81 1.78 1.82 3.67 3.47 5.59 5.14 8.24 7.38 16 15.3 23.8 23.2 1.6 1.61 3.2 3.21 4.79 4.81 3.56 3.57 7.12 7.14 10.7 10.7 1.52 1.53 3.04 3.05 4.57 4.57 1.52 1.53 3.03 3.06 4.53 4.6 2 1.95 3.99 3.72 6.13 5.5 3.27 2.77 5.81 5.74 8.5 9.07 3.34 3.51 6.88 6.62 10.6 9.66 0.45 0.44 0.9 0.88 1.36 1.34v2c0.6 0.26 1.2 0.52 1.81 0.78 2.34 1.3 3.49 2.51 5.12 4.59 2.45 2.97 4.99 5.29 8.07 7.63 1.81 1.62 1.81 1.62 3 3v2c0.57 0.24 1.13 0.48 1.72 0.73 2.73 1.51 4.54 3.34 6.71 5.58 0.79 0.8 1.58 1.61 2.4 2.44 0.71 0.74 1.43 1.48 2.17 2.25 0.88 0.88 1.77 1.77 2.69 2.68 0.76 0.77 1.52 1.53 2.31 2.32 0.54 0.51 1.08 1.03 1.63 1.56 1.49 1.44 2.93 2.93 4.37 4.44v2c0.83 0.34 0.83 0.34 1.69 0.68 2.97 1.69 4.95 3.85 7.31 6.32 0.93 0.88 1.85 1.77 2.81 2.68 2.19 2.32 2.19 2.32 2.19 4.32 0.86 0.34 0.86 0.34 1.75 0.68 2.84 1.66 4.2 3.74 6.25 6.32 1.71 1.55 3.47 3.03 5.25 4.51 2.41 2.05 4.61 4.15 6.75 6.49v2c0.54 0.21 1.08 0.43 1.64 0.66 3.13 1.78 5.48 4.18 8 6.71 0.53 0.53 1.05 1.05 1.6 1.59 1.1 1.11 2.21 2.22 3.31 3.33 1.7 1.71 3.4 3.4 5.11 5.1 1.08 1.07 2.15 2.15 3.23 3.23 0.51 0.51 1.02 1.02 1.55 1.54 3.56 3.61 3.56 3.61 3.56 5.84 0.57 0.25 1.15 0.5 1.74 0.76 2.55 1.4 4.25 2.98 6.31 5.03 0.79 0.79 1.59 1.58 2.41 2.4 0.87 0.87 1.73 1.73 2.62 2.63 0.92 0.91 1.84 1.83 2.78 2.77 2.51 2.5 5.02 5.01 7.52 7.52 2.63 2.63 5.25 5.25 7.88 7.87 4.4 4.4 8.8 8.81 13.2 13.2 5.09 5.1 10.2 10.2 15.3 15.3 4.38 4.37 8.75 8.74 13.1 13.1l7.84 7.84c2.91 2.9 5.82 5.82 8.72 8.73 0.87 0.87 1.75 1.74 2.65 2.63 1.17 1.19 1.17 1.19 2.38 2.4 1.03 1.03 1.03 1.03 2.08 2.09 1.46 1.7 1.46 1.7 1.46 3.71 0.54 0.22 1.09 0.44 1.65 0.66 3.1 1.76 5.4 4.12 7.88 6.63 0.55 0.54 1.1 1.09 1.66 1.65 1.83 1.83 3.66 3.67 5.48 5.5l3.94 3.94c3.57 3.57 7.13 7.14 10.7 10.7 3.72 3.74 7.45 7.47 11.2 11.2 7.08 7.07 14.1 14.2 21.2 21.2 8.02 8.04 16 16.1 24.1 24.1 13.7 13.7 27.4 27.5 41.2 41.2 0.58 0.58 1.16 1.16 1.75 1.76 1.07 1.07 2.13 2.14 3.19 3.2 1.38 1.38 2.76 2.76 4.14 4.15 0.9 0.91 1.81 1.82 2.74 2.75 1.82 1.81 3.64 3.45 5.63 5.06 2.47 2.09 4.61 4.24 6.69 6.72 4.59 5.3 9.54 10.2 14.5 15.2 0.92 0.93 1.84 1.85 2.79 2.8 5.37 5.4 5.37 5.4 11.1 10.4 2.29 1.87 4.12 3.71 6 5.97 3.34 3.91 6.9 7.53 10.6 11.1 0.82 0.84 1.65 1.69 2.5 2.56 1.91 1.86 3.82 3.55 5.87 5.25 3.33 2.8 6.06 5.92 8.87 9.24 2.21 2.45 4.66 4.48 7.2 6.58 2.16 1.89 3.81 4.09 5.56 6.37 1.65 1.68 3.32 3.34 5 5 1.2 1.19 2.39 2.39 3.59 3.59 0.64 0.64 1.28 1.27 1.93 1.93 69.5 69.5 69.5 69.5 72.2 72.2 1.82 1.81 3.63 3.44 5.62 5.05 2.48 2.09 4.63 4.26 6.72 6.74 4.45 5.15 9.26 9.94 14.1 14.8l8.93 8.93c2.58 2.57 5.15 5.15 7.72 7.72 1.99 2 3.98 3.99 5.97 5.98 1.41 1.4 2.82 2.81 4.23 4.22 0.85 0.86 1.71 1.71 2.6 2.59 0.75 0.75 1.5 1.5 2.27 2.28 2.06 2.01 2.06 2.01 4.38 3.62 0.57 0.44 1.14 0.89 1.73 1.36v2h2v2c1.32 0.65 2.64 1.32 4 2 0.1 88.1 0.2 176 0.25 264v3.95c0.02 27.6 0.04 55.3 0.05 82.9l0.03 41.6v6.29c0.02 32.2 0.04 64.5 0.08 96.8v2.1c0.02 11.2 0.03 22.4 0.04 33.6 0.04 32.2 0.08 64.4 0.09 96.6 0 0.66 0 1.32 0.01 2 0 13.9 0.01 27.8 0.01 41.6 0 6.5 0 13 0.01 19.5v3.87c0.01 20.6 0.03 41.3 0.07 61.9 0.03 20.7 0.05 41.4 0.04 62.2-0.01 12.3 0.01 24.6 0.04 37 0.02 8.22 0.03 16.4 0.01 24.7-0.01 4.69-0.01 9.38 0.02 14.1 0.02 4.26 0.02 8.52-0.01 12.8 0 1.54 0 3.08 0.02 4.61 0.02 2.08 0.01 4.16-0.02 6.24 0 1.15 0 2.3 0.01 3.49-0.75 2.93-0.75 2.93-3.56 5.28-5.91 3.06-11 3.04-17.2 1.52-2.88-1.27-4.71-2.62-6.95-4.86-0.5-2.76-0.67-4.91-0.62-7.67-0.01-0.78-0.01-1.56-0.02-2.36-0.01-2.63 0.01-5.26 0.03-7.89 0-1.91-0.01-3.81-0.02-5.71-0.01-5.24 0.01-10.5 0.03-15.7 0.02-5.67 0.01-11.3 0.01-17-0.01-11.2 0.01-22.3 0.04-33.4 0.03-13.2 0.03-26.3 0.04-39.5 0-23.7 0.03-47.5 0.08-71.2 0.04-22.6 0.07-45.2 0.08-67.8v-4.14c0-5.5 0.01-11 0.01-16.5 0.04-85 0.15-170 0.81-307 0.01-0.97 0.01-1.95 0.02-2.95 0.23-41.2 0.49-82.4 0.8-124 0.15-21.3 0.28-42.5 0.36-63.8 0.05-11.9 0.12-23.9 0.23-35.8 0.11-11 0.17-22 0.19-33 0.01-5.66 0.04-11.3 0.12-17 0.07-5.16 0.09-10.3 0.07-15.5 0-1.87 0.02-3.73 0.06-5.6 0.31-11.8 0.31-11.8-5.15-21.8-2.27-2.35-4.69-4.49-7.17-6.61-1.35-1.37-2.7-2.74-4.02-4.13-1.22-1.22-2.44-2.44-3.66-3.65l-2-2c-2.07-2.06-4.13-4.11-6.2-6.16-1.4-1.4-2.8-2.8-4.2-4.19-3.12-3.11-6.23-6.21-9.35-9.31-1.47-1.46-2.93-2.93-4.39-4.4-1.81-1.8-3.64-3.43-5.62-5.04-3.07-2.59-5.61-5.4-8.18-8.48-3.25-3.86-6.96-7.15-10.8-10.5-3.58-3.16-6.72-6.47-9.81-10.1-4.27-4.88-8.85-9.6-13.9-13.6-3.02-2.56-5.45-5.32-8.02-8.32-4.7-5.36-9.84-10.2-15.3-14.8-4.93-4.22-9.12-9.16-13.4-14-3.33-3.68-6.76-7.06-10.6-10.2-3.01-2.54-5.53-5.26-8.01-8.32-2.06-2.4-4.3-4.58-6.55-6.8-1.2-1.21-2.4-2.42-3.6-3.63-1.3-1.32-2.6-2.63-3.9-3.94-0.65-0.66-1.3-1.32-1.98-2-3.36-3.38-6.77-6.47-10.5-9.43-1.14-1.22-2.25-2.47-3.31-3.76-4.58-5.34-9.39-10.5-14.9-14.9-3.01-2.54-5.3-5.35-7.81-8.37-1.67-1.34-3.33-2.68-5-4-0.9-1.15-0.9-1.15-1.81-2.32-1.93-2.36-3.76-4.1-6.07-6.06-3.26-2.78-6.03-5.7-8.76-9-2.64-3.15-5.47-5.94-8.74-8.44-3.01-2.51-5.39-5.32-7.93-8.3-2.03-2.26-4.32-4.01-6.69-5.88-1.69-1.99-3.36-3.99-5-6-3.96-4.19-8.27-7.94-12.6-11.7-2.4-2.28-4.35-4.7-6.4-7.28-0.97-0.81-1.94-1.61-2.94-2.44-3.13-2.62-5.49-5.4-8.06-8.56-2.84-2.99-5.81-5.71-8.94-8.38-3.22-2.78-5.93-5.72-8.63-9-1.42-1.61-2.88-2.91-4.56-4.25-2.76-2.28-4.69-4.56-6.87-7.37-1.65-1.69-3.32-3.36-5-5-0.55-0.56-1.1-1.12-1.67-1.7-2.72-2.77-5.44-5.47-8.46-7.93-4.54-3.76-8.41-7.97-12.3-12.4-3.33-3.73-6.66-6.9-10.6-10-1.69-1.65-3.36-3.32-5-5-0.89-0.85-1.78-1.7-2.69-2.57-2.31-2.44-2.31-2.44-3.38-4.62-1.23-2.39-2.54-2.65-4.93-3.81-4.78-4.34-4.78-4.34-6-8-0.99-0.33-1.98-0.67-3-1-1.65-1.68-1.65-1.68-3.38-3.76-3.88-4.56-7.94-8.67-12.5-12.6-3.53-3.05-6.52-6.35-9.53-9.9-1.99-2.23-4.22-3.98-6.59-5.78-2.82-2.63-2.82-2.63-5-5v-2c-0.99-0.33-1.98-0.67-3-1-1.65-1.68-1.65-1.68-3.38-3.76-5-5.97-10.7-11.2-16.4-16.5-14.6-13.6-14.6-13.6-17.2-16.7v-2c-0.99-0.34-1.98-0.66-3-1-1.65-1.68-1.65-1.68-3.38-3.76-3.57-4.2-7-8.17-11.6-11.2v-2h-2v-2c-0.99-0.34-1.98-0.66-3-1-2.69-2.44-2.69-2.44-5-5v-2h-2v-2c-0.99-0.34-1.98-0.66-3-1-1.71-1.63-3.37-3.3-5-5-1.04-1.02-2.07-2.04-3.12-3.05-1.06-1.05-2.13-2.09-3.19-3.14-0.83-0.8-0.83-0.8-1.67-1.62-1.38-1.36-2.71-2.77-4.02-4.19v-2c-0.57-0.25-1.14-0.49-1.72-0.74-2.73-1.52-4.58-3.32-6.79-5.53l-2.72-2.72c-0.99-0.99-1.98-1.99-2.97-2.98-1.05-1.05-2.09-2.1-3.14-3.14-2.84-2.84-5.68-5.69-8.51-8.54-2.97-2.98-5.94-5.96-8.92-8.93-5.63-5.65-11.3-11.3-16.9-16.9-6.39-6.41-12.8-12.8-19.2-19.2-10.9-11-21.9-21.9-32.8-32.9-0.91-0.91-1.81-1.81-2.74-2.75-0.78-0.78-1.55-1.56-2.36-2.36-1.65-1.66-3.31-3.31-4.97-4.96-1.83-1.85-3.49-3.68-5.11-5.7-2.76-3.26-5.8-5.97-9.04-8.73-4.86-4.28-9.51-8.82-13.5-13.9-1.55-2.28-1.55-2.28-4.62-3-0.62 0.63-0.62 0.63-1.25 1.28-3.15 3.19-6.33 6.25-9.75 9.15-3.48 2.99-6.45 6.23-9.41 9.72-2.08 2.41-4.31 4.63-6.59 6.85-0.89 0.92-1.78 1.85-2.69 2.81-2.31 2.19-2.31 2.19-4.31 2.19-0.33 0.98-0.66 1.98-1 3h-2c-0.22 0.54-0.44 1.08-0.66 1.64-1.81 3.17-4.26 5.56-6.84 8.1-0.5 0.51-1 1.02-1.51 1.54-3.74 3.72-3.74 3.72-5.99 3.72-0.33 0.98-0.66 1.98-1 3-1.62 1.71-3.3 3.36-5 5-1.09 1.1-2.18 2.21-3.26 3.33-1.15 1.16-2.29 2.32-3.43 3.48-0.58 0.59-1.16 1.19-1.76 1.81-1.48 1.5-3.01 2.94-4.55 4.38h-2c-0.24 0.56-0.48 1.13-0.73 1.72-1.52 2.72-3.35 4.54-5.58 6.71-0.81 0.79-1.62 1.58-2.45 2.39-0.74 0.72-1.48 1.44-2.24 2.18-1.36 1.36-1.36 1.36-2.75 2.74-2.42 2.42-4.84 4.84-7.25 7.26-0.89 0.92-1.78 1.85-2.69 2.81-2.31 2.19-2.31 2.19-4.31 2.19-0.26 0.58-0.53 1.17-0.8 1.78-1.27 2.33-2.6 3.82-4.51 5.65-0.63 0.61-1.25 1.21-1.89 1.83-0.6 0.57-1.19 1.15-1.8 1.74-0.87 0.88-1.73 1.77-2.63 2.68-2.37 2.31-2.37 2.31-4.75 4.13-2.12 1.76-3.63 3.31-5.37 5.4-5.94 6.85-12.5 13.2-18.9 19.6-1.42 1.42-2.84 2.84-4.26 4.27-2.96 2.96-5.92 5.93-8.88 8.89-3.81 3.81-7.61 7.62-11.4 11.4-2.92 2.93-5.85 5.86-8.78 8.79-1.4 1.4-2.8 2.81-4.2 4.22-1.95 1.96-3.91 3.91-5.86 5.86-0.58 0.58-1.16 1.17-1.76 1.77-4 3.98-4 3.98-6.23 3.98-0.31 0.79-0.31 0.79-0.63 1.6-1.95 3.4-4.59 5.91-7.37 8.64-0.55 0.56-1.1 1.11-1.66 1.68-4.09 4.08-4.09 4.08-6.34 4.08-0.24 0.56-0.48 1.13-0.73 1.72-1.52 2.72-3.35 4.54-5.58 6.71-0.76 0.74-1.52 1.48-2.31 2.25-0.78 0.76-1.57 1.53-2.38 2.32-3.18 3.16-6.33 6.34-9.48 9.53-2.3 2.32-4.6 4.63-6.9 6.95-1.21 1.23-2.43 2.45-3.64 3.68-1.75 1.78-3.51 3.55-5.28 5.32-0.54 0.56-1.08 1.11-1.64 1.68-1.32 1.32-2.69 2.58-4.06 3.84h-2c-0.26 0.6-0.53 1.2-0.8 1.82-1.28 2.31-2.45 3.43-4.51 5.05-2.47 2.01-4.53 4.01-6.5 6.5-0.73 0.87-1.45 1.73-2.19 2.63h-2l-1 3c-4.32 4.77-4.32 4.77-8 6l-1 3c-1.63 1.7-3.3 3.37-5 5-0.56 0.59-1.12 1.19-1.69 1.81-1.31 1.19-1.31 1.19-3.31 1.19-0.24 0.56-0.48 1.13-0.73 1.72-1.52 2.72-3.35 4.54-5.58 6.71-0.81 0.79-1.62 1.58-2.45 2.39-0.74 0.72-1.48 1.44-2.24 2.18-1.3 1.33-1.3 1.33-2.63 2.68-1.91 1.86-3.84 3.59-5.87 5.32-5.02 4.25-9.39 8.94-13.7 13.9-2.19 2.45-4.5 4.75-6.84 7.07-0.9 0.89-1.8 1.79-2.72 2.71-2.76 2.76-5.52 5.52-8.28 8.29-0.89 0.91-1.79 1.83-2.71 2.77-2.09 2.03-3.74 2.95-6.29 4.23l-1 3c-4.32 4.77-4.32 4.77-8 6l-1 3h-2c-0.37 0.86-0.37 0.86-0.75 1.74-1.44 2.58-3.04 4.32-5.25 6.26h-2c-0.24 0.56-0.48 1.13-0.73 1.72-1.52 2.72-3.35 4.54-5.58 6.71-0.81 0.79-1.62 1.58-2.45 2.39-0.74 0.72-1.48 1.44-2.24 2.18-1.3 1.33-1.3 1.33-2.63 2.68-1.87 1.82-3.74 3.47-5.75 5.13-3.42 2.87-6.22 6.09-9.04 9.55-1.58 1.64-1.58 1.64-4.58 2.64-0.29 0.57-0.58 1.15-0.88 1.74-2.72 5.46-8.5 9.38-13 13.4-2.47 2.22-4.8 4.53-7.12 6.91-1.04 1.01-1.04 1.01-2.09 2.05-4.05 4-7.93 8.03-11.6 12.4-2.67 3.13-5.51 5.92-8.77 8.43-2.12 1.76-3.64 3.34-5.37 5.44-2.03 2.44-4.1 4.54-6.53 6.56-6.46 5.58-12.4 11.7-18.4 17.8-1.32 1.32-2.65 2.64-3.97 3.97-3.46 3.46-6.92 6.93-10.4 10.4-3.52 3.52-7.04 7.05-10.6 10.6-5.68 5.69-11.4 11.4-17 17.1-0.5 0.5-1 1.01-1.52 1.52-0.64 0.65-0.64 0.65-1.29 1.3-3.83 3.84-7.67 7.67-11.5 11.5-0.99 0.98-1.97 1.96-2.96 2.94-0.52 0.52-1.05 1.03-1.58 1.57-12 11.9-24.1 23.9-36.1 35.9-6.95 6.92-13.9 13.8-20.9 20.7-6.09 6.03-12.2 12.1-18.2 18.1-3.2 3.2-6.41 6.39-9.64 9.57-3.03 2.99-6.04 6-9.05 9.02-1.11 1.1-2.21 2.19-3.33 3.28-1.52 1.5-3.03 3.01-4.53 4.53-0.85 0.84-1.69 1.68-2.57 2.55-6.57 8.82-5.58 19.2-5.53 29.7 0 1.82-0.01 3.65-0.01 5.47-0.01 5.01 0 10 0.01 15 0.02 5.4 0.01 10.8 0 16.2 0 10.6 0.01 21.1 0.03 31.7 0.01 12.3 0.01 24.6 0.01 36.9 0.01 22 0.02 43.9 0.05 65.8 0.02 21.3 0.03 42.6 0.04 63.9v3.98 7.93 3.96 3.94c0 20.3 0.02 40.6 0.03 60.9 0 7.36 0.01 14.7 0.01 22.1 0 11.7 0.01 23.3 0.03 35 0 5.34 0.01 10.7 0.01 16 0 4.87 0 9.75 0.01 14.6 0.01 1.77 0.01 3.54 0.01 5.31-0.01 2.39 0 4.79 0.01 7.18-0.01 1.05-0.01 1.05-0.01 2.12 0.01 2.99 0.18 5.25 1.14 8.12 0.09 2.51 0.13 4.99 0.13 7.5v2.35c0.01 2.62 0 5.23 0 7.85 0 1.89 0.01 3.78 0.01 5.67v15.6c0 5.6 0.01 11.2 0.01 16.8 0.01 11 0.01 22 0.01 33 0.01 8.93 0.01 17.9 0.01 26.8 0.01 21.2 0.01 42.4 0.01 63.5v2.05 10.3 2.07 4.14c0 21.5 0.01 42.9 0.02 64.4 0.02 24.1 0.03 48.2 0.03 72.3 0 12.8 0 25.5 0.01 38.3 0.01 10.9 0.01 21.7 0 32.6 0 5.55 0 11.1 0.01 16.6 0.01 5.08 0.01 10.2 0 15.2v5.52c0.01 2.49 0 4.99 0 7.48 0 0.72 0.01 1.44 0.01 2.18-0.03 4.26-0.59 7.77-2.26 11.7-3.28 1.68-7.45 1.16-11.1 1.18-1.22 0.02-2.45 0.03-3.72 0.05-3.21-0.23-3.21-0.23-6.21-2.23-2.33-7.53-2.34-15-2.41-22.8-0.01-1.38-0.03-2.77-0.05-4.16-0.05-3.79-0.09-7.58-0.12-11.4-0.03-2.43-0.05-4.87-0.08-7.3-0.47-40.4-0.56-80.9-0.64-121-0.01-7.73-0.03-15.5-0.05-23.2 0-1.13-0.01-2.26-0.01-3.42 0-2.31-0.01-4.62-0.01-6.93-0.07-29.3-0.13-58.5-0.19-87.8 0-3.78-0.01-7.56-0.02-11.3-0.09-49-0.18-98.1-0.26-147-0.02-10.5-0.04-20.9-0.05-31.4-0.01-1.29-0.01-2.58-0.01-3.91-0.07-40.2-0.15-80.4-0.25-121-0.1-38.8-0.18-77.7-0.23-117 0-5.37-0.01-10.7-0.02-16.1v-3.19c-0.03-16.9-0.07-33.8-0.12-50.7-0.05-16.8-0.08-33.7-0.09-50.6 0-9.94-0.02-19.9-0.07-29.8-0.03-6.59-0.03-13.2-0.02-19.8 0-3.75 0-7.5-0.03-11.3-0.03-4.02-0.02-8.05 0-12.1-0.02-1.17-0.03-2.33-0.05-3.54 0.07-6.32 0.67-10 5.28-14.6 0.49-0.43 0.99-0.85 1.5-1.29 0.71-0.68 1.42-1.35 2.16-2.04 0.63-0.53 1.25-1.05 1.9-1.59 2.29-1.94 4.44-3.87 6.56-6 2.38-2.37 2.38-2.37 5.31-4.75 2.28-1.85 4.14-3.8 6-6.06 2.02-2.44 4.06-4.5 6.5-6.5 2.5-2.06 4.62-4.19 6.7-6.66 4.23-4.9 8.78-9.45 13.4-14 0.95-0.94 1.89-1.89 2.84-2.84 2.58-2.59 5.17-5.17 7.76-7.75l8.38-8.38c4.84-4.84 9.68-9.67 14.5-14.5 7.01-6.99 14-14 21-21 11.4-11.4 22.7-22.7 34.1-34.1 11-11 22-22 33.1-33.1 0.67-0.68 1.35-1.36 2.05-2.06 3.41-3.4 6.82-6.81 10.2-10.2 23.5-23.5 47-47 70.5-70.4l1.52-1.52c2.32-2.31 4.63-4.63 6.95-6.94 0.8-0.81 1.61-1.61 2.44-2.44l2.21-2.21c1.19-1.19 2.38-2.38 3.56-3.57 2.39-2.39 4.81-4.65 7.4-6.82 2.44-2.11 4.42-4.07 6.5-6.56 2.59-3.12 5.37-5.59 8.45-8.22 4.17-3.63 8-7.49 11.5-11.8 2.69-3.15 5.59-5.68 8.73-8.35 1.98-1.69 1.98-1.69 3.84-4.15 1.85-2.32 3.68-4.03 5.93-5.94 2.48-2.11 4.47-4.05 6.57-6.56 1.95-2.35 3.65-4.06 5.95-6 5.52-4.77 10.6-9.96 15.7-15.1 0.98-0.99 1.96-1.97 2.94-2.96 1.8-1.81 3.61-3.62 5.41-5.44 1.7-1.71 3.41-3.41 5.13-5.11 2.41-2.37 2.41-2.37 4.64-5.24 1.89-2.31 3.88-4.22 6.16-6.14 5.45-4.71 10.5-9.82 15.6-14.9 1.1-1.11 2.21-2.21 3.31-3.31 3.01-3.02 6.03-6.03 9.04-9.05 3.25-3.26 6.51-6.52 9.77-9.78 5.63-5.64 11.3-11.3 16.9-16.9 8.15-8.17 16.3-16.3 24.5-24.5 13.2-13.2 26.5-26.5 39.7-39.8 0.79-0.79 1.59-1.58 2.4-2.4 5.62-5.63 11.2-11.3 16.9-16.9 6.42-6.43 12.8-12.9 19.3-19.3 0.8-0.79 1.59-1.59 2.4-2.4 13.2-13.2 26.4-26.4 39.6-39.6 8.14-8.15 16.3-16.3 24.4-24.4 5.58-5.58 11.2-11.2 16.7-16.7 3.21-3.22 6.43-6.43 9.64-9.65 2.94-2.95 5.89-5.9 8.84-8.85 1.06-1.06 2.12-2.13 3.19-3.19 5.28-5.31 10.6-10.4 16.4-15.2 0.84-0.85 1.69-1.7 2.56-2.57 8.86-8.86 8.86-8.86 12.8-7.81z" fill="#FD0803"/>
<path transform="translate(596 1220)" d="m0 0c1.26 0 2.52 0.01 3.82 0.01 1.27-0.02 2.53-0.03 3.83-0.05h3.64c1.66-0.01 1.66-0.01 3.36-0.01 0.88 0.12 1.77 0.25 2.67 0.37 2.62 3.93 2.25 7.21 2.18 11.8 0 0.89-0.01 1.79-0.01 2.71-0.01 1.94-0.03 3.88-0.05 5.83-0.03 3.07-0.04 6.14-0.06 9.21-0.04 8.73-0.1 17.5-0.17 26.2-0.04 5.34-0.07 10.7-0.09 16-0.01 2.04-0.03 4.08-0.05 6.11-0.03 2.85-0.05 5.69-0.05 8.54-0.03 1.27-0.03 1.27-0.05 2.57-0.03 2.57-0.03 2.57 0.35 6.05 3.18 2.12 3.94 2.25 7.58 2.24 0.94 0.01 1.88 0.01 2.84 0.01 1.54-0.01 1.54-0.01 3.11-0.02h3.29c3.58 0 7.17-0.02 10.8-0.03 2.48-0.01 4.97-0.01 7.45-0.01 5.88-0.01 11.8-0.02 17.6-0.04 7.34-0.03 14.7-0.04 22-0.05 13.1-0.02 26.2-0.06 39.3-0.1v-1.73c0-6.09-0.01-12.2-0.01-18.3 0-2.25-0.01-4.51-0.01-6.76-0.02-19.7 0.19-39.4 0.51-59.1 0.01-0.78 0.01-1.57 0.02-2.37 0.08-2.93 0.16-5.22 1.67-7.77 2.56-1.43 4.53-1.41 7.45-1.42 1.65 0 1.65 0 3.33-0.01 1.15 0.01 2.3 0.03 3.48 0.04 1.15-0.01 2.29-0.03 3.47-0.04 1.1 0.01 2.21 0.01 3.34 0.01 1.01 0.01 2.01 0.01 3.05 0.01 3.33 0.48 4.43 0.89 6.7 3.39 0.62 3.05 0.53 6.07 0.49 9.17 0 0.95 0 1.9 0.01 2.88 0 3.2-0.02 6.39-0.04 9.59v6.86c0 6.22-0.02 12.4-0.05 18.6-0.03 6.5-0.03 13-0.03 19.5-0.01 10.9-0.04 21.8-0.07 32.7-0.04 11.2-0.07 22.5-0.09 33.7v2.09c0 3.48-0.01 6.95-0.01 10.4-0.05 28.8-0.12 57.6-0.21 86.4-4.37 0.05-8.75 0.09-13.1 0.11-1.49 0.01-2.98 0.03-4.47 0.04-2.14 0.03-4.28 0.04-6.42 0.05-1.29 0.01-2.58 0.02-3.9 0.03-3.08-0.23-3.08-0.23-5.08-2.23-0.26-1.93-0.26-1.93-0.27-4.34-0.02-0.91-0.03-1.82-0.04-2.76v-3.04c-0.02-1.58-0.02-1.58-0.04-3.19-0.03-3.5-0.04-6.99-0.06-10.5-0.02-2.42-0.04-4.84-0.06-7.25-0.05-6.38-0.09-12.8-0.13-19.1-0.04-6.5-0.09-13-0.14-19.5-0.09-12.8-0.18-25.5-0.26-38.3-2.37-1.19-3.8-1.12-6.45-1.12h-2.84c-1.03 0-2.06 0.01-3.12 0.01h-3.28c-3.6 0-7.19 0.01-10.8 0.01-2.49 0.01-4.97 0.01-7.46 0.01-5.88 0-11.8 0.01-17.6 0.02-7.35 0.01-14.7 0.02-22.1 0.02-13.1 0.01-26.2 0.03-39.4 0.05 0.01 1.23 0.01 2.46 0.01 3.72 0.02 11.6 0.04 23.2 0.05 34.8 0 5.96 0.01 11.9 0.02 17.9 0.01 5.76 0.02 11.5 0.02 17.3 0 2.19 0 4.39 0.01 6.58 0.01 3.08 0.01 6.17 0.01 9.25 0 0.9 0 1.79 0.01 2.72-0.01 6.28-0.47 12.5-1.13 18.7-3.93 0.08-7.86 0.13-11.8 0.17-2 0.02-3.99 0.06-5.99 0.1-1.88 0.01-1.88 0.01-3.8 0.03-1.73 0.02-1.73 0.02-3.5 0.04-2.92-0.34-2.92-0.34-4.57-1.48-1.94-2.69-1.72-4.7-1.71-8-0.01-1.29-0.01-2.58-0.02-3.91 0.01-1.43 0.02-2.86 0.03-4.3 0-1.5-0.01-3.01-0.01-4.52 0-4.13 0.01-8.25 0.03-12.4 0.01-4.39 0.01-8.77 0.01-13.2 0.01-7.42 0.02-14.8 0.04-22.3 0.03-7.48 0.04-15 0.04-22.4 0-0.9 0-1.8 0.01-2.74v-2.73c0.01-35.2 0.15-70.3 0.6-105 0.02-2.17 0.05-4.34 0.07-6.5 0.04-3.94 0.1-7.88 0.16-11.8 0.01-1.16 0.02-2.32 0.03-3.51 0.02-1.05 0.04-2.1 0.06-3.18 0.01-0.9 0.02-1.81 0.04-2.75 0.78-6.1 7.25-4.46 12-4.49z" fill="#FD0803"/>
<path transform="translate(591 440)" d="m0 0c1.16 0.01 2.33 0.02 3.53 0.03 1.21 0.02 2.43 0.05 3.68 0.08 1.22 0.01 2.45 0.02 3.71 0.04 3.04 0.03 6.07 0.08 9.1 0.14 2 3.35 2.26 5.9 2.27 9.77 0.01 1.18 0.02 2.35 0.03 3.57v3.9c0.01 1.38 0.02 2.75 0.03 4.12 0.02 2.96 0.03 5.92 0.04 8.87 0.01 4.69 0.03 9.37 0.06 14 0.04 7.42 0.07 14.8 0.1 22.2 0.05 13.3 0.12 26.5 0.19 39.8 0.02 4.65 0.04 9.3 0.06 13.9 0.01 2.91 0.02 5.81 0.04 8.71 0.01 1.97 0.01 3.94 0.01 5.92 0.04 6.09 0.23 12.1 0.96 18.1 0.21 2.03 0.21 2.03 0.14 5.51 0.1 4.79 1.13 9.19 2.26 13.8 0.34 1.4 0.34 1.4 0.68 2.83 1.62 6.41 3.41 12.3 7.13 17.8 0.43 0.64 0.86 1.28 1.3 1.93 6.71 8.79 18.1 13.6 28.7 15.7 5.75 0.74 11.6 0.55 17.4 0.53 1.19 0 2.37 0.01 3.58 0.01 15.3-0.02 26.6-1.99 38.1-13 13.5-14.5 14.3-34.9 14.3-53.7l0.03-4.17c0.02-2.96 0.03-5.92 0.04-8.88 0.01-4.69 0.03-9.38 0.06-14.1 0.04-7.43 0.07-14.8 0.1-22.3 0.05-13.3 0.12-26.6 0.19-39.9 0.02-4.65 0.04-9.31 0.06-14 0.01-2.9 0.02-5.81 0.04-8.72 0.01-1.96 0.01-3.92 0.01-5.88 0.04-5.92 0.17-11.8 0.49-17.7 0.06-1.04 0.12-2.08 0.17-3.16 0.57-2.92 1.11-3.91 3.51-5.63 2.73-0.34 2.73-0.34 5.98-0.29 1.16 0.01 2.33 0.02 3.53 0.03 1.21 0.02 2.43 0.05 3.68 0.08 1.84 0.02 1.84 0.02 3.71 0.04 3.04 0.03 6.07 0.08 9.1 0.14 2.1 3.46 2.25 6.16 2.25 10.2 0 1.26 0.01 2.52 0.01 3.83-0.01 1.4-0.01 2.8-0.02 4.19 0 1.48 0.01 2.96 0.01 4.43 0 4 0 8.01-0.01 12-0.01 4.19-0.01 8.38-0.01 12.6 0 7.03-0.01 14.1-0.02 21.1-0.02 8.14-0.03 16.3-0.02 24.4 0 7.82-0.01 15.6-0.02 23.5v9.99c0 3.92-0.01 7.84-0.02 11.8v4.32c0 1.96-0.01 3.92-0.02 5.88v3.34c-0.13 2.57-0.13 2.57-1.13 4.57-0.11 1.74-0.22 3.47-0.29 5.21-0.71 17.6-5.39 34.9-16.7 48.8-0.69 0.86-1.38 1.71-2.09 2.59-12.7 14.9-31.7 23.6-50.9 26.1-29.6 2.06-57.5-1.3-82.1-19-0.61-0.57-1.23-1.15-1.87-1.75v-2c-0.99-0.33-1.98-0.66-3-1-19.7-22.8-21.1-54.4-21.2-83-0.01-1.42-0.01-2.84-0.02-4.25-0.01-3.79-0.02-7.58-0.02-11.4 0-2.37-0.01-4.74-0.01-7.11-0.02-7.44-0.03-14.9-0.03-22.3 0-8.56-0.02-17.1-0.05-25.7-0.02-6.64-0.03-13.3-0.03-19.9 0-3.96-0.01-7.92-0.03-11.9-0.01-3.71-0.02-7.42-0.01-11.1 0-2.01-0.01-4.02-0.02-6.03 0-1.2 0.01-2.39 0.01-3.62v-3.14c0.37-2.58 0.37-2.58 1.72-4.41 2.51-1.77 4.6-1.5 7.63-1.46z" fill="#FD0803"/>
<path transform="translate(28,1057)" d="m0 0v74h-2c-1.46-2.92-1.12-5.48-1.11-8.74v-2.1c0-2.3 0-4.59 0.01-6.89 0-1.59 0.01-3.17 0.01-4.76 0-4.19 0.01-8.37 0.02-12.6 0.01-4.27 0.02-8.54 0.02-12.8 0.01-8.38 0.03-16.8 0.05-25.1 2-1 2-1 3-1z" fill="#FBF9F9"/>
<path transform="translate(28,891)" d="m0 0v68c-0.99-0.33-1.98-0.66-3-1v-66c2-1 2-1 3-1z" fill="#FBF9F9"/>
<path transform="translate(28,831)" d="m0 0v43c-0.99-0.33-1.98-0.66-3-1v-41c2-1 2-1 3-1z" fill="#FBF9F9"/>
<path transform="translate(763,443)" d="m0 0v31c-0.99-0.33-1.98-0.66-3-1v-29c2-1 2-1 3-1z" fill="#FBF9F9"/>
<path transform="translate(1344,1593)" d="m0 0v7h-20l-2-4c1.09 0.14 1.09 0.14 2.2 0.29 7.91 0.91 13.1-3.29 19.8-3.29z" fill="#FBF9F9"/>
<path transform="translate(674,1343)" d="m0 0h24l1 3h-26l1-3z" fill="#FBF9F9"/>
<path transform="translate(1211,1006)" d="m0 0h2v25h-2c-1.68-3.36-1.14-7.12-1.12-10.8-0.01-0.81-0.01-1.62-0.02-2.45 0.01-4.04 0.13-7.79 1.14-11.7z" fill="#FBF9F9"/>
<path transform="translate(5,1595)" d="m0 0 2 1c3.17 0.03 6.33-0.03 9.5-0.13 3.76-0.06 5.29-0.01 8.5 2.13l-1 2h-19l-1-4 1-1z" fill="#FBF9F9"/>
<path transform="translate(29,1511)" d="m0 0v17c-0.99-0.33-1.98-0.66-3-1v-15c2-1 2-1 3-1z" fill="#FBF9F9"/>
<path transform="translate(1214,741)" d="m0 0v15c-0.99-0.33-1.98-0.66-3-1v-13c2-1 2-1 3-1z" fill="#FBF9F9"/>
<path transform="translate(383,324)" d="m0 0h3v2h-2l-1 3h-2v2h-2v2h-2v2h-2v2h-2v2l-2-1c0.45-0.51 0.89-1.02 1.36-1.54 0.6-0.69 1.2-1.38 1.83-2.08 0.64-0.73 1.27-1.45 1.93-2.2 1.6-1.86 3.12-3.75 4.63-5.68 0.74-0.82 1.49-1.65 2.25-2.5z" fill="#FBFAFA"/>
<path transform="translate(645,65)" d="m0 0v2h-2v2c-1.38 1.62-1.38 1.62-3 3h-2v2h-2l-1 3h-2l-1 3-1-3c2.57-4.02 8.85-12 14-12z" fill="#FBFBFB"/>
<path transform="translate(303,404)" d="m0 0h3l-1 3h-2v2h-2v2h-2v2h-2v2c-2.5 1.62-2.5 1.62-5 3 1.47-3.42 3.38-5.56 6.06-8.12 2.86-2.66 2.86-2.66 4.94-5.88z" fill="#FBFBFB"/>
<path transform="translate(617,1443)" d="m0 0v12c-0.99 0.49-0.99 0.49-2 1-0.96-2.88-1.11-4.7-1.06-7.69 0.01-0.81 0.02-1.61 0.02-2.45 0.02-0.61 0.03-1.23 0.04-1.86 2-1 2-1 3-1z" fill="#FBF9F9"/>
<path transform="translate(28,980)" d="m0 0v11c-0.99-0.33-1.98-0.66-3-1v-9c2-1 2-1 3-1z" fill="#FBF9F9"/>
<path transform="translate(1213,1037)" d="m0 0v10h-2c-1.48-2.96-1.06-5.74-1-9 2-1 2-1 3-1z" fill="#FBF9F9"/>
<path transform="translate(560,149)" d="m0 0 1 2h-2v2h-2v2c-1.96 1.71-3.96 3.38-6 5 0-2.12 0-2.12 1-5 2.5-2.25 5.2-4.14 8-6z" fill="#FBFAFA"/>
</svg>
