<?xml version="1.0" encoding="utf-8"?>
<!-- Generator: Adobe Illustrator 25.3.1, SVG Export Plug-In . SVG Version: 6.00 Build 0)  -->
<svg version="1.1" id="Шар_1" xmlns="http://www.w3.org/2000/svg" xmlns:xlink="http://www.w3.org/1999/xlink" x="0px" y="0px"
	 viewBox="0 0 595.28 841.89" style="enable-background:new 0 0 595.28 841.89;" xml:space="preserve">
<style type="text/css">
	.st0{fill:#E30613;stroke:#000000;stroke-width:2;stroke-miterlimit:10;}
	.st1{font-family:'MyriadPro-Regular';}
	.st2{font-size:35px;}
</style>
<g
fill="#000000" stroke="none">
<path d="M126 245 c5 -38 4 -45 -11 -45 -9 0 -28 9 -42 20 -25 19 -63 27 -63
13 0 -3 8 -30 17 -60 l17 -53 44 0 44 0 -6 -45 c-7 -43 -6 -45 18 -45 29 0 48
17 65 59 11 24 20 30 48 33 70 6 70 70 1 76 -30 3 -37 9 -56 47 -19 39 -26 45
-52 45 l-31 0 7 -45z"/>
</g>

</svg>
