<?xml version="1.0" encoding="utf-8"?>
<!-- Generator: Adobe Illustrator 25.3.1, SVG Export Plug-In . SVG Version: 6.00 Build 0)  -->
<svg version="1.1" id="Шар_1" xmlns="http://www.w3.org/2000/svg" xmlns:xlink="http://www.w3.org/1999/xlink" x="0px" y="0px"
	 viewBox="0 0 595.28 841.89" style="enable-background:new 0 0 595.28 841.89;" xml:space="preserve">
<style type="text/css">
	.st0{fill:#E30613;stroke:#000000;stroke-width:2;stroke-miterlimit:10;}
	.st1{fill:none;}
	.st2{stroke:#000000;stroke-width:2;stroke-miterlimit:10;}
</style>
<rect x="248.7" y="371.29" transform="matrix(0.7071 -0.7071 0.7071 0.7071 -208.9928 334.0175)" class="st0" width="100" height="96"/>
<line class="st1" x1="250.66" y1="320.55" x2="269.29" y2="290.95"/>
<path d="M290,421.58c0.36-4.3,3.78-7.61,7.77-7.53c3.99,0.08,7.28,3.51,7.5,7.82"/>
<rect x="285.14" y="421.87" class="st0" width="25" height="0"/>
<rect x="290.52" y="414.12" transform="matrix(0.7071 -0.7071 0.7071 0.7071 -208.1005 327.6009)" class="st2" width="1.77" height="1.77"/>
<rect x="302.89" y="414.28" transform="matrix(0.7071 -0.7071 0.7071 0.7071 -204.5898 336.3999)" class="st0" width="1.77" height="1.77"/>
<rect x="296.39" y="411.58" class="st2" width="2.5" height="2.5"/>
<polygon points="297.64,436.13 308.86,422.73 286.42,422.73 "/>
</svg>
